<svg xmlns="http://www.w3.org/2000/svg" viewBox="0 0 64 64" width="64" height="64">
  
  <path d="M32 4 C37.5 11.5 41 15.5 41 22.5 C41 27.75 37 31.5 32 31.5 C27 31.5 23 27.75 23 22.5 C23 15.5 26.5 11.5 32 4 Z" fill="#d94f14"></path>
  <path d="M32 13 C34.8 17 36.5 19.2 36.5 22.8 C36.5 25.6 34.5 27.5 32 27.5 C29.5 27.5 27.5 25.6 27.5 22.8 C27.5 19.2 29.2 17 32 13 Z" fill="#ff9558"></path>
  <rect x="25" y="35" width="14" height="20" rx="2.5" fill="#1d8076"></rect>
  <rect x="30.75" y="55" width="2.5" height="6" rx="1.25" fill="#1d8076"></rect>
</svg>